<?xml version="1.0" standalone="no"?>
<!DOCTYPE svg PUBLIC "-//W3C//DTD SVG 20010904//EN"
 "http://www.w3.org/TR/2001/REC-SVG-20010904/DTD/svg10.dtd">
<svg version="1.0" xmlns="http://www.w3.org/2000/svg"
 width="512.000000pt" height="512.000000pt" viewBox="0 0 512.000000 512.000000"
 preserveAspectRatio="xMidYMid meet">
<metadata>
Created by potrace 1.11, written by Peter Selinger 2001-2013
</metadata>
<g transform="translate(0.000000,512.000000) scale(0.100000,-0.100000)"
fill="#000000" stroke="none">
<path d="M2071 4903 c-172 -199 -199 -509 -64 -751 l34 -63 67 68 67 68 -27
60 c-74 164 -49 353 65 498 l30 39 -65 65 -65 65 -42 -49z"/>
<path d="M2992 4884 l-62 -66 30 -35 c117 -133 142 -351 60 -514 l-21 -40 63
-69 63 -70 23 27 c33 42 83 168 97 249 27 153 -5 325 -82 451 -35 57 -95 133
-104 133 -2 -1 -32 -30 -67 -66z"/>
<path d="M2550 4182 c-254 -28 -454 -252 -452 -506 0 -67 3 -70 92 -99 118
-39 243 -59 381 -62 160 -3 273 13 405 56 l94 32 0 66 c-1 202 -110 382 -282
465 -71 34 -176 55 -238 48z"/>
<path d="M1245 4009 c-92 -62 -125 -89 -216 -179 -217 -215 -376 -568 -414
-915 -4 -33 -9 -71 -11 -85 -10 -53 -16 -380 -8 -381 41 -4 748 -3 753 1 11 7
81 172 77 179 -2 3 -149 6 -326 5 l-321 -1 6 96 c3 53 7 112 10 131 2 19 7 55
10 80 18 136 67 309 124 433 80 179 235 359 405 472 l86 57 -32 57 c-18 32
-40 68 -48 80 l-15 23 -80 -53z"/>
<path d="M3843 4047 c-5 -6 -27 -40 -47 -75 -37 -61 -37 -64 -21 -83 10 -10
22 -19 27 -19 19 0 164 -117 230 -185 221 -226 346 -565 360 -975 l3 -75 -322
-1 c-178 0 -325 -3 -327 -5 -3 -3 6 -27 19 -54 13 -28 31 -68 40 -90 l17 -40
361 2 c199 0 371 2 383 2 21 1 21 5 19 139 -2 122 -10 241 -20 312 -12 89 -19
126 -40 216 -91 391 -291 693 -590 891 -83 55 -82 54 -92 40z"/>
<path d="M1884 3444 c-74 -45 -109 -71 -158 -120 -161 -162 -178 -367 -44
-535 39 -49 143 -102 333 -168 120 -42 395 -117 470 -128 22 -3 50 -9 61 -13
93 -36 436 59 804 221 104 46 113 52 152 104 163 214 79 461 -214 638 l-57 34
-68 -33 c-64 -32 -192 -75 -258 -88 -16 -4 -41 -9 -55 -11 -48 -10 -166 -19
-245 -19 -245 0 -474 53 -656 150 -3 2 -33 -13 -65 -32z"/>
<path d="M3535 2582 c-8 -7 -110 -53 -310 -138 -117 -49 -380 -127 -507 -148
l-38 -7 0 -810 0 -809 33 5 c254 42 444 136 617 305 163 158 278 354 341 580
16 56 14 47 23 103 4 27 10 59 13 70 2 12 6 87 8 167 4 162 -10 272 -50 414
-23 77 -107 276 -117 276 -2 0 -8 -4 -13 -8z"/>
<path d="M1586 2512 c-148 -294 -172 -688 -61 -1019 139 -416 475 -731 858
-804 100 -19 107 -19 108 -9 1 5 2 371 3 811 1 793 1 802 -19 809 -11 5 -96
26 -190 49 -207 49 -384 107 -530 173 -60 27 -115 52 -122 55 -7 3 -26 -23
-47 -65z"/>
<path d="M356 2092 c2 -114 11 -270 20 -337 47 -376 143 -697 289 -972 44 -84
163 -273 172 -273 4 0 114 81 137 101 4 4 -20 51 -54 106 -77 123 -167 307
-215 441 -35 99 -98 331 -109 402 -3 19 -8 46 -10 60 -12 67 -27 194 -32 275
-3 50 -7 96 -9 103 -4 9 73 12 360 12 l365 0 1 23 c1 30 5 63 13 120 l7 47
-469 0 -468 0 2 -108z"/>
<path d="M3889 2188 c-2 -16 -2 -15 5 -63 3 -22 7 -57 8 -77 l2 -38 357 0 358
0 -4 -67 c-23 -453 -163 -906 -381 -1241 -62 -95 -67 -78 38 -152 l56 -40 34
48 c110 156 213 359 285 567 13 39 26 79 29 90 2 11 8 31 14 45 26 67 80 334
96 475 3 33 8 69 10 79 2 11 7 102 10 203 l6 183 -461 0 c-361 0 -461 -3 -462
-12z"/>
<path d="M874 1618 c6 -136 7 -143 31 -241 110 -467 557 -942 1035 -1101 58
-19 121 -36 140 -38 l34 -3 16 88 17 87 -41 10 c-222 57 -455 192 -635 369
-104 103 -122 124 -196 229 -99 143 -181 334 -203 477 -8 47 -7 55 7 56 9 1
62 1 119 1 56 0 105 4 108 9 2 5 1 26 -5 46 -5 21 -12 59 -16 86 l-6 47 -206
0 -205 0 6 -122z"/>
<path d="M3899 1738 c-9 -26 -34 -180 -30 -182 3 -2 59 -3 124 -2 l117 1 0
-25 c0 -39 -35 -169 -70 -258 -25 -66 -116 -233 -151 -276 -105 -133 -151
-181 -254 -272 -161 -142 -392 -267 -560 -302 -31 -6 -40 -13 -39 -28 1 -18
13 -92 19 -124 2 -8 4 -21 4 -27 1 -18 56 -8 166 29 236 79 445 214 645 417
123 126 214 249 291 399 94 183 137 347 145 550 l3 102 -204 0 c-113 0 -205
-1 -206 -2z"/>
</g>
</svg>
