<?xml version="1.0" standalone="no"?>
<!DOCTYPE svg PUBLIC "-//W3C//DTD SVG 20010904//EN"
 "http://www.w3.org/TR/2001/REC-SVG-20010904/DTD/svg10.dtd">
<svg version="1.0" xmlns="http://www.w3.org/2000/svg"
 width="551.000000pt" height="551.000000pt" viewBox="0 0 551.000000 551.000000"
 preserveAspectRatio="xMidYMid meet">
<metadata>
Created by potrace 1.11, written by Peter Selinger 2001-2013
</metadata>
<g transform="translate(0.000000,551.000000) scale(0.100000,-0.100000)"
fill="#000000" stroke="none">
<path d="M0 4346 l1 -1164 22 -6 22 -6 -22 -19 -23 -19 0 -1566 0 -1566 2755
0 2755 0 0 474 c0 430 -2 474 -16 480 -9 4 -19 4 -22 1 -3 -3 0 -5 6 -5 19 0
14 -17 -7 -23 -22 -5 -48 7 -33 17 6 3 13 0 15 -6 3 -7 6 -8 6 -3 1 6 -14 22
-33 37 -30 24 -33 25 -29 8 3 -11 10 -20 16 -20 6 0 7 -3 4 -7 -11 -10 -46 28
-40 43 3 8 -2 23 -11 32 -9 9 -28 32 -42 50 -14 17 -30 32 -34 32 -5 0 -20 11
-34 25 -14 14 -31 22 -39 19 -8 -3 -18 0 -22 5 -3 6 -10 9 -15 6 -5 -3 -11 -1
-15 5 -3 6 4 10 16 10 12 0 19 3 16 7 -6 5 -17 8 -60 12 -5 1 -6 5 -3 9 3 5
-5 18 -17 29 -12 11 -32 34 -44 49 -12 16 -42 50 -67 76 -38 38 -57 49 -109
61 -49 12 -55 15 -29 16 46 1 169 -27 217 -51 22 -11 76 -32 120 -47 44 -16
129 -56 188 -90 60 -33 110 -61 113 -61 2 0 4 351 4 780 0 542 -3 780 -11 780
-5 0 -7 -4 -4 -10 3 -6 -1 -7 -9 -4 -14 5 -14 8 0 22 18 18 10 25 -42 36 -24
6 -33 3 -38 -10 -5 -12 -2 -15 12 -12 12 3 19 0 19 -9 0 -9 -7 -13 -21 -9 -21
5 -52 -11 -54 -27 0 -5 -3 -12 -7 -15 -4 -4 -5 0 -3 8 2 9 -4 15 -17 15 -13 0
-20 -6 -19 -17 2 -22 0 -22 -21 -1 -14 14 -18 14 -26 2 -7 -12 -9 -12 -10 1
-1 8 -1 21 0 28 2 15 -4 15 -30 2 -15 -9 -18 -7 -17 7 1 10 -1 46 -6 80 -4 34
-4 68 0 75 8 13 10 31 15 136 2 58 4 62 26 62 12 0 23 5 23 10 0 6 -10 10 -21
10 -17 0 -19 3 -10 13 6 8 8 17 5 20 -11 11 6 57 21 57 8 0 15 5 15 11 0 6 -9
8 -20 4 -17 -5 -20 -2 -20 24 0 27 4 31 28 32 l27 1 -25 11 c-24 12 -25 14
-17 67 5 30 8 73 7 95 -1 52 19 176 32 193 7 8 7 12 -1 12 -6 0 -11 12 -10 28
0 27 1 27 11 5 6 -13 15 -23 19 -23 5 0 15 -16 23 -35 8 -19 20 -35 27 -35 8
0 7 5 -2 17 -12 15 -12 16 4 10 10 -4 23 -7 29 -7 6 0 3 -9 -7 -20 -18 -20
-11 -25 19 -14 9 3 13 11 9 17 -4 6 2 8 18 4 22 -5 22 -5 7 7 -19 14 -25 32
-8 21 6 -3 10 -1 10 5 0 8 -7 9 -17 5 -23 -10 -54 -8 -65 3 -5 5 11 9 38 10
26 0 49 4 53 9 11 16 38 22 50 10 8 -8 11 228 11 906 l0 917 -2755 0 -2755 0
0 -1164z m3432 1018 c21 -15 38 -31 38 -35 0 -5 15 -9 34 -9 19 0 38 -5 41
-10 6 -9 34 -8 118 5 15 3 25 1 22 -4 -3 -5 9 -13 27 -16 34 -8 104 -51 128
-80 17 -21 88 -55 114 -55 41 0 101 -46 153 -115 29 -39 61 -82 73 -97 11 -14
20 -32 20 -39 0 -7 8 -31 19 -53 10 -23 27 -64 37 -93 17 -50 18 -51 51 -46
34 6 83 -12 83 -29 0 -5 -10 -6 -22 -2 -13 3 -20 3 -15 -1 4 -5 16 -9 26 -10
10 -1 31 -16 46 -33 15 -18 31 -32 36 -32 5 0 21 -7 35 -17 17 -11 21 -18 13
-23 -8 -6 -6 -13 10 -26 22 -19 29 -40 10 -28 -7 4 -10 1 -7 -7 3 -8 11 -14
19 -14 8 0 20 -4 27 -8 8 -6 12 -2 12 12 0 33 18 24 25 -11 6 -33 29 -98 46
-130 5 -10 9 -26 9 -35 0 -10 18 -50 39 -89 44 -80 66 -182 56 -255 -5 -38 -3
-51 12 -66 10 -10 26 -30 35 -45 10 -14 31 -29 48 -33 29 -6 42 -25 18 -25 -8
0 -9 -3 -3 -8 19 -14 25 -111 13 -209 -5 -42 -4 -51 8 -46 9 3 14 -2 15 -18 0
-13 3 -18 6 -11 9 22 49 58 61 54 6 -2 19 6 29 17 18 22 43 28 43 11 0 -5 5
-10 10 -10 6 0 10 9 10 20 0 19 14 26 70 32 24 3 25 0 33 -66 5 -38 5 -80 1
-95 -4 -14 -6 -30 -4 -36 2 -5 3 -62 2 -125 -1 -102 -4 -117 -22 -132 -24 -20
-25 -28 -4 -28 12 0 15 -6 11 -22 -4 -12 -2 -27 4 -34 7 -8 6 -72 0 -192 -11
-180 -15 -211 -35 -224 -6 -4 -12 -13 -12 -20 -1 -7 -2 -18 -3 -25 -1 -13 -62
-13 -72 0 -3 4 -22 -1 -42 -11 -28 -14 -34 -21 -25 -30 17 -17 19 -59 2 -73
-8 -6 -14 -22 -14 -35 0 -12 -4 -26 -10 -29 -12 -8 -13 20 -1 43 5 9 5 26 0
37 -6 17 -8 17 -8 3 -1 -10 -5 -18 -11 -18 -5 0 -10 -6 -10 -14 0 -15 -48 -28
-56 -15 -8 14 -24 10 -24 -6 0 -8 7 -15 15 -15 8 0 15 -4 15 -10 0 -5 -11 -10
-25 -10 -14 0 -25 -4 -25 -10 0 -5 5 -10 12 -10 6 0 8 -3 4 -7 -4 -5 -14 0
-21 11 -15 20 -37 13 -28 -9 6 -18 -8 -20 -25 -3 -9 9 -12 7 -12 -11 0 -13 -8
-38 -19 -55 -10 -17 -19 -45 -19 -62 -1 -27 5 -35 44 -55 25 -12 47 -26 50
-31 5 -8 -46 -4 -103 8 -12 2 -25 -1 -28 -7 -5 -7 -14 -3 -26 10 -20 21 -65
38 -75 28 -10 -10 17 -48 49 -67 40 -25 48 -25 40 -2 -6 15 -5 15 8 2 19 -19
20 -60 2 -53 -7 3 -13 9 -13 14 0 5 -5 9 -11 9 -7 0 -28 10 -47 22 -20 12 -43
23 -51 24 -9 1 -27 6 -40 10 l-25 7 32 -56 c18 -32 30 -57 27 -57 -10 0 -65
64 -65 76 0 7 -5 16 -12 20 -7 5 -8 3 -3 -6 5 -9 4 -11 -3 -6 -7 4 -10 19 -7
34 3 15 3 22 0 16 -3 -7 -15 -10 -25 -7 -11 3 -20 0 -20 -6 0 -6 -5 -11 -10
-11 -7 0 -7 7 1 21 11 22 8 80 -6 112 -6 15 -4 18 11 15 12 -2 20 4 22 17 2
11 11 26 20 34 14 11 14 14 3 18 -20 8 -54 44 -47 50 3 3 13 0 22 -8 21 -17
64 -19 64 -3 0 18 -17 27 -23 12 -4 -10 -8 -9 -20 2 -10 10 -13 26 -10 49 l6
34 13 -29 14 -29 -4 28 c-2 15 1 30 5 33 5 3 9 18 9 34 0 21 8 33 33 49 18 12
25 21 17 21 -8 1 5 11 29 23 25 12 53 36 62 52 19 33 41 138 28 129 -5 -3 -9
11 -9 30 0 19 -7 41 -15 50 -8 8 -15 22 -15 30 0 9 -17 27 -37 40 -21 14 -50
35 -65 46 -16 12 -28 18 -28 14 0 -13 -47 55 -60 87 -15 36 -26 37 -34 4 -4
-14 -10 -25 -15 -25 -4 0 -7 -10 -6 -22 1 -13 0 -15 -2 -5 -2 9 -9 14 -15 11
-5 -4 -3 4 5 17 8 13 20 41 27 62 6 20 16 37 21 37 5 0 27 18 49 40 l38 39 -2
-35 c-3 -35 -16 -61 -16 -31 0 21 -14 22 -30 2 -9 -10 -10 -28 -4 -61 7 -38
17 -54 54 -84 25 -21 56 -41 70 -45 24 -7 24 -7 8 12 -10 11 -18 26 -18 33 0
16 51 -34 69 -67 6 -13 17 -23 24 -23 8 0 7 4 -3 10 -13 9 -13 12 3 24 24 19
21 33 -10 53 -68 44 -79 73 -58 152 21 80 34 84 28 9 -3 -53 -1 -67 16 -88 11
-14 21 -19 21 -12 0 7 4 11 10 7 5 -3 7 -12 4 -20 -4 -9 6 -17 32 -24 46 -13
78 1 71 30 -3 12 0 19 8 19 30 0 30 105 1 140 -26 30 -36 81 -29 156 3 41 10
74 14 74 5 0 9 -8 10 -17 2 -47 18 27 18 85 1 73 -21 107 -64 96 -15 -4 -25
-2 -25 5 0 6 -7 11 -16 11 -14 0 -14 -3 -4 -15 10 -12 9 -15 -5 -15 -26 0 -75
55 -75 84 0 30 -8 33 -25 9 -11 -15 -13 -13 -19 14 -5 22 -1 43 13 72 25 47
29 131 7 131 -17 0 -27 34 -20 69 3 14 -2 40 -10 56 -9 17 -16 37 -16 45 0 22
-55 80 -75 80 -10 0 -15 3 -12 6 4 4 -2 19 -13 34 -22 31 -26 45 -10 35 14 -9
13 5 -5 55 -8 24 -41 72 -73 107 -31 35 -69 80 -84 100 -22 28 -29 32 -34 19
-3 -9 -3 -27 0 -41 8 -30 56 -77 73 -71 17 7 45 -23 39 -40 -3 -7 -1 -16 5
-19 16 -10 41 -65 29 -65 -6 0 -17 15 -25 34 -8 19 -24 38 -36 41 -35 11 -97
74 -109 109 -6 18 -11 49 -12 69 -1 20 -5 34 -10 31 -4 -3 -8 5 -8 16 0 12 -9
33 -20 47 -11 14 -20 33 -21 42 0 26 -91 152 -128 180 -27 20 -33 22 -28 9 5
-14 -5 -11 -48 13 -46 26 -57 28 -76 19 -17 -10 -20 -9 -14 1 6 9 3 11 -8 6
-10 -3 -17 -3 -17 2 0 12 -39 36 -70 45 -22 6 -23 5 -8 -6 9 -8 19 -32 23 -53
l6 -40 -23 39 c-15 26 -33 43 -53 48 -33 9 -81 45 -72 54 3 3 22 0 43 -8 29
-10 38 -10 41 0 3 6 9 12 15 12 6 0 7 -7 4 -16 -5 -13 -2 -15 14 -11 22 6 74
-16 64 -26 -3 -3 9 -13 26 -22 25 -13 34 -14 40 -4 16 24 -81 84 -117 73 -16
-5 -15 -3 1 10 11 9 15 16 8 16 -6 0 -22 15 -33 33 -12 18 -40 46 -61 61 -28
20 -36 31 -27 37 8 5 -1 10 -25 14 -21 4 -40 13 -42 19 -3 7 -20 10 -44 8 -22
-2 -40 0 -40 5 0 6 -22 4 -52 -4 -29 -7 -60 -12 -68 -10 -8 2 13 9 48 17 34 7
62 16 62 21 0 16 -54 44 -99 50 l-46 6 44 2 c34 1 55 -6 83 -25z m-362 -24 c0
-5 -7 -10 -15 -10 -8 0 -15 5 -15 10 0 6 7 10 15 10 8 0 15 -4 15 -10z m96
-20 c18 -18 41 -30 59 -31 l30 -2 -27 -4 c-16 -2 -28 -9 -28 -16 0 -8 -3 -8
-12 1 -15 15 -32 16 -23 1 4 -6 -2 -5 -13 2 -12 7 -19 16 -16 20 2 4 -7 14
-21 23 -14 9 -25 21 -25 26 0 21 48 8 76 -20z m409 2 c-3 -3 -11 0 -18 7 -9
10 -8 11 6 5 10 -3 15 -9 12 -12z m-1018 -77 l28 -26 -37 22 c-38 21 -46 29
-29 29 6 0 23 -11 38 -25z m306 8 c-7 -2 -21 -2 -30 0 -10 3 -4 5 12 5 17 0
24 -2 18 -5z m75 0 c-10 -2 -26 -2 -35 0 -10 3 -2 5 17 5 19 0 27 -2 18 -5z
m882 -203 c8 -5 11 -10 5 -10 -5 0 -17 5 -25 10 -8 5 -10 10 -5 10 6 0 17 -5
25 -10z m-2930 -1005 c-13 -14 -28 -25 -34 -25 -13 0 35 49 48 49 5 1 -1 -10
-14 -24z m3582 -101 c0 -63 0 -64 -48 -108 -60 -56 -76 -59 -33 -8 34 41 58
111 59 177 1 69 22 12 22 -61z m-3514 69 c-1 -10 1 -31 5 -48 l7 -30 -17 32
c-9 17 -13 38 -10 47 8 21 16 20 15 -1z m25 -18 c-3 -9 -8 -14 -10 -11 -3 3
-2 9 2 15 9 16 15 13 8 -4z m3317 -13 c0 -5 -7 -17 -15 -28 -14 -18 -14 -17
-4 9 12 27 19 34 19 19z m-3440 -79 c0 -7 -4 -13 -10 -13 -5 0 -10 12 -10 28
0 21 2 24 10 12 5 -8 10 -21 10 -27z m4565 -203 c3 -5 1 -10 -4 -10 -6 0 -11
5 -11 10 0 6 2 10 4 10 3 0 8 -4 11 -10z m-1670 -10 c3 -5 1 -10 -4 -10 -6 0
-11 5 -11 10 0 6 2 10 4 10 3 0 8 -4 11 -10z m1615 0 c0 -5 -4 -10 -10 -10 -5
0 -10 5 -10 10 0 6 5 10 10 10 6 0 10 -4 10 -10z m-1580 -45 c0 -8 -2 -15 -4
-15 -2 0 -6 7 -10 15 -3 8 -1 15 4 15 6 0 10 -7 10 -15z m-90 -10 c-30 -17
-40 -18 -40 -6 0 8 22 16 55 19 6 1 -1 -5 -15 -13z m-1897 -10 c-3 -9 -8 -14
-10 -11 -3 3 -2 9 2 15 9 16 15 13 8 -4z m1941 -26 c3 -17 9 -28 14 -25 4 2 8
-13 8 -35 1 -21 -2 -36 -7 -33 -5 3 -9 14 -9 24 0 11 -9 35 -19 54 -18 31 -18
46 -1 46 4 0 10 -14 14 -31z m-1895 -33 c-1 -24 -17 -66 -19 -51 -1 6 -3 31
-4 58 -1 40 1 45 12 30 6 -9 12 -26 11 -37z m1991 -8 c0 -34 -19 -28 -29 9 -6
21 -11 43 -11 48 1 17 40 -39 40 -57z m-3193 -10 c-3 -8 -6 -5 -6 6 -1 11 2
17 5 13 3 -3 4 -12 1 -19z m3237 -4 c3 -8 2 -12 -4 -9 -6 3 -10 10 -10 16 0
14 7 11 14 -7z m-174 -16 c1 -15 35 -58 45 -58 4 0 16 10 26 22 21 24 20 24
37 -17 11 -27 11 -28 -3 -11 -21 28 -30 13 -12 -21 9 -15 19 -37 23 -48 7 -19
8 -19 11 3 3 12 10 22 16 22 7 0 12 -10 13 -22 0 -13 4 -36 8 -53 6 -24 5 -27
-4 -15 -9 12 -10 -4 -7 -68 2 -45 1 -79 -2 -76 -7 7 -42 143 -43 164 0 25 -38
101 -47 95 -5 -3 -7 -14 -4 -25 5 -17 2 -18 -25 -10 -24 6 -30 5 -26 -5 6 -15
54 -27 54 -14 0 15 18 10 24 -7 4 -11 2 -15 -7 -11 -19 7 -41 -8 -32 -22 3 -7
15 -9 26 -6 11 4 19 2 19 -5 0 -6 -4 -8 -10 -5 -5 3 -10 -1 -10 -10 0 -9 4
-14 9 -11 5 4 7 -4 3 -16 l-5 -22 -16 24 c-9 13 -27 37 -40 53 -22 26 -25 27
-41 12 -16 -14 -18 -14 -24 1 -3 9 -13 14 -20 11 -8 -3 -17 1 -20 9 -3 8 1 17
9 20 8 4 15 12 15 19 0 7 7 16 16 19 8 3 12 2 9 -3 -3 -5 -1 -12 4 -16 9 -5
34 28 27 36 -10 12 -16 79 -6 79 5 0 10 -6 10 -12z m154 -60 c4 -17 2 -28 -4
-28 -5 0 -10 6 -10 13 0 6 -3 23 -6 37 -5 17 -3 22 3 15 6 -5 13 -22 17 -37z
m-2034 -3 c0 -7 6 -18 13 -22 13 -9 19 -53 6 -53 -4 0 -5 -9 -2 -20 3 -11 -13
-53 -41 -105 -26 -47 -44 -85 -41 -85 4 0 -1 -7 -10 -16 -26 -26 -26 -11 0 40
25 49 25 73 0 73 -8 0 -12 -4 -9 -8 2 -4 -2 -11 -10 -16 -8 -5 -22 -24 -31
-43 l-16 -35 6 34 c3 19 12 48 21 65 9 17 18 48 19 70 3 37 20 60 37 50 4 -3
8 4 8 14 0 11 7 25 15 32 9 7 14 19 11 27 -3 7 1 13 9 13 8 0 15 -7 15 -15z
m-1300 -29 c0 -3 -4 -8 -10 -11 -5 -3 -10 -1 -10 4 0 6 5 11 10 11 6 0 10 -2
10 -4z m4140 -6 c0 -5 -5 -10 -11 -10 -5 0 -7 5 -4 10 3 6 8 10 11 10 2 0 4
-4 4 -10z m-4148 -38 c-19 -15 -22 -26 -21 -72 2 -64 5 -71 24 -64 8 4 13 10
10 14 -3 4 3 14 13 21 15 13 16 12 3 -3 -7 -10 -10 -18 -5 -18 5 0 9 -27 9
-61 0 -57 -1 -59 -17 -40 -18 24 -38 27 -38 8 0 -8 -11 -24 -25 -37 -14 -13
-25 -19 -25 -13 0 6 6 16 13 22 22 17 40 88 28 109 -9 15 -10 14 -11 -7 0 -19
-3 -22 -12 -13 -6 6 -11 28 -10 48 1 24 -4 42 -16 51 -15 13 -15 13 7 7 19 -5
23 -3 18 9 -4 11 5 23 26 36 39 25 61 27 29 3z m3088 8 c0 -5 -5 -10 -11 -10
-5 0 -7 5 -4 10 3 6 8 10 11 10 2 0 4 -4 4 -10z m-1894 -71 c-3 -23 -14 -54
-25 -70 -19 -25 -40 -93 -41 -128 0 -11 3 -11 17 0 15 13 15 10 9 -26 -4 -22
-12 -44 -17 -50 -6 -6 -7 3 -3 23 6 27 4 31 -10 26 -19 -7 -19 -4 -5 88 14 93
50 176 76 178 2 0 1 -19 -1 -41z m3004 -43 c0 -8 3 -23 7 -33 6 -16 5 -16 -10
-4 -18 15 -23 51 -7 51 6 0 10 -6 10 -14z m-4323 -17 c8 -3 9 -9 4 -18 -7 -11
-12 -10 -29 5 -21 18 -20 43 1 26 7 -5 17 -11 24 -13z m-74 -26 c3 -5 -11 -9
-31 -10 -27 -2 -33 0 -22 7 18 12 47 13 53 3z m287 -3 c0 -5 -4 -10 -10 -10
-5 0 -7 -6 -4 -14 3 -8 1 -17 -5 -21 -12 -7 -15 14 -5 39 7 18 24 22 24 6z
m3061 -10 c63 -23 153 -112 164 -159 8 -39 -1 -83 -23 -107 -10 -11 -27 -35
-38 -54 -25 -45 -54 -85 -54 -74 0 5 7 31 15 58 34 113 15 196 -63 267 -29 27
-59 49 -65 50 -7 0 -30 9 -52 19 l-40 19 52 0 c30 1 75 -8 104 -19z m-3266
-10 c16 -7 11 -9 -20 -9 -29 -1 -36 2 -25 9 17 11 19 11 45 0z m-115 -30 c0
-5 -6 -10 -14 -10 -8 0 -27 -7 -43 -16 -25 -15 -31 -15 -63 -1 -34 15 -35 16
-5 11 17 -2 50 2 75 10 25 8 46 15 48 15 1 1 2 -3 2 -9z m1595 -16 c-20 -16
-20 -16 1 -10 25 8 27 -15 4 -54 -8 -14 -15 -27 -15 -30 0 -3 -6 -14 -12 -25
-22 -40 -25 -92 -9 -148 21 -74 20 -78 -10 -34 -32 47 -54 110 -54 153 0 37
39 126 52 118 4 -3 11 3 15 13 7 20 22 33 38 33 6 -1 1 -8 -10 -16z m-1820 -4
c3 -5 1 -10 -4 -10 -6 0 -11 5 -11 10 0 6 2 10 4 10 3 0 8 -4 11 -10z m61 1
c-3 -5 -15 -7 -26 -4 -28 7 -25 13 6 13 14 0 23 -4 20 -9z m281 3 c-3 -3 -12
-4 -19 -1 -8 3 -5 6 6 6 11 1 17 -2 13 -5z m4113 -15 c0 -6 -4 -7 -10 -4 -5 3
-10 11 -10 16 0 6 5 7 10 4 6 -3 10 -11 10 -16z m-2500 -9 c5 0 2 -13 -7 -29
-9 -15 -22 -28 -27 -28 -6 0 -20 -1 -31 -2 -17 -1 -18 -3 -5 -12 12 -9 11 -9
-5 -4 -11 4 -25 8 -32 8 -6 0 -9 7 -5 16 10 29 22 39 42 34 13 -3 22 1 26 11
4 10 13 15 21 12 8 -3 19 -6 23 -6z m1929 -48 c0 -30 -2 -33 -9 -17 -12 28
-12 67 0 60 6 -3 10 -23 9 -43z m-72 -44 c-2 -18 -4 -6 -4 27 0 33 2 48 4 33
2 -15 2 -42 0 -60z m548 42 c-3 -4 2 -10 10 -14 8 -3 15 -11 15 -18 0 -9 -3
-8 -10 2 -5 8 -10 11 -10 5 0 -15 -20 18 -20 33 0 7 5 10 10 7 6 -4 8 -10 5
-15z m205 -11 c0 -6 -4 -7 -10 -4 -5 3 -10 11 -10 16 0 6 5 7 10 4 6 -3 10
-11 10 -16z m-208 -74 c-3 -5 2 -4 11 4 15 12 17 11 17 -8 0 -37 -56 -148 -84
-166 -15 -10 -29 -15 -33 -12 -7 8 17 38 26 33 4 -3 12 4 19 15 11 16 9 19 -8
19 -11 0 -20 5 -20 11 0 5 5 7 10 4 6 -3 10 0 10 7 0 8 7 23 16 34 14 18 15
18 4 -4 -18 -37 -3 -38 19 -2 21 35 15 60 -21 88 -10 7 -18 20 -18 29 0 12 8
8 28 -13 16 -16 27 -33 24 -39z m-2477 35 c3 -5 2 -10 -4 -10 -5 0 -13 5 -16
10 -3 6 -2 10 4 10 5 0 13 -4 16 -10z m2613 -36 c15 -15 21 -23 15 -20 -10 5
-13 -6 -13 -45 0 -48 -3 -55 -45 -96 -25 -25 -49 -42 -55 -38 -8 5 -4 12 9 22
12 8 21 22 21 31 0 10 9 35 21 57 15 28 20 50 16 77 -3 21 -3 38 -1 38 3 0 17
-12 32 -26z m-218 -26 c0 -18 -10 -44 -21 -58 l-20 -25 15 32 c9 18 16 43 16
58 0 14 2 25 5 25 3 0 5 -15 5 -32z m-253 -4 c-3 -3 -12 -4 -19 -1 -8 3 -5 6
6 6 11 1 17 -2 13 -5z m-2384 -41 c8 -16 22 -55 31 -88 10 -33 32 -91 51 -128
28 -56 31 -69 19 -74 -8 -3 -21 -18 -29 -34 -12 -23 -13 -30 -2 -41 15 -14 12
-38 -5 -38 -6 0 -8 6 -5 14 3 8 1 16 -6 19 -6 2 -11 20 -11 40 0 22 -3 32 -8
24 -5 -7 -7 0 -6 18 1 17 -2 36 -6 43 -14 22 -24 125 -15 155 7 23 5 28 -6 23
-16 -6 -16 -5 -20 34 -1 14 -6 33 -10 43 -12 29 13 20 28 -10z m2541 13 c-3
-8 -13 -17 -22 -21 -13 -5 -13 -2 3 15 21 24 26 25 19 6z m-377 -38 c-3 -8 -6
-5 -6 6 -1 11 2 17 5 13 3 -3 4 -12 1 -19z m242 9 c-2 -1 -13 -9 -24 -17 -19
-14 -19 -14 -6 3 7 9 18 17 24 17 6 0 8 -1 6 -3z m-252 -64 c-3 -10 -5 -4 -5
12 0 17 2 24 5 18 2 -7 2 -21 0 -30z m83 8 c-5 -11 -15 -23 -22 -27 -7 -5 -8
-2 -3 7 21 37 44 55 25 20z m330 15 c0 -2 -7 -7 -16 -10 -8 -3 -12 -2 -9 4 6
10 25 14 25 6z m-415 -88 c-3 -18 -21 -68 -41 -110 -38 -83 -55 -158 -35 -158
8 0 8 -4 -1 -14 -11 -11 -15 -9 -25 16 -12 29 -13 29 -37 11 -13 -10 -23 -22
-23 -27 1 -5 -3 -10 -9 -13 -12 -4 -7 47 5 57 3 3 17 26 31 53 13 26 27 47 30
47 3 0 11 13 18 30 7 16 24 39 37 52 14 13 25 29 25 36 0 14 18 52 25 52 2 0
2 -15 0 -32z m393 -25 c-44 -47 -62 -93 -64 -167 -3 -74 -7 -90 -14 -48 -12
80 -5 137 22 177 23 33 59 63 77 65 3 0 -7 -12 -21 -27z m-361 -25 c-3 -7 -5
-2 -5 12 0 14 2 19 5 13 2 -7 2 -19 0 -25z m-2077 -7 c0 -10 9 -26 20 -36 20
-18 28 -51 10 -40 -6 4 -8 11 -5 16 4 5 1 9 -5 9 -13 0 -51 61 -44 72 8 13 24
-1 24 -21z m2158 -149 c5 -72 4 -103 -4 -106 -20 -8 -36 11 -33 40 2 16 0 35
-5 42 -4 7 -5 16 -1 20 3 3 10 0 15 -8 12 -19 13 -9 10 70 -4 93 10 49 18 -58z
m1312 104 c0 -2 -7 -7 -16 -10 -8 -3 -12 -2 -9 4 6 10 25 14 25 6z m-1351 -81
c-1 -15 -4 -13 -14 10 -8 17 -14 39 -14 50 1 15 4 13 14 -10 8 -16 14 -39 14
-50z m-30 -24 c1 -35 -5 -22 -12 24 -5 28 -4 34 3 20 5 -11 9 -31 9 -44z m448
-53 c-3 -8 -6 -5 -6 6 -1 11 2 17 5 13 3 -3 4 -12 1 -19z m-2562 -68 c-3 -5
-10 -10 -16 -10 -5 0 -9 5 -9 10 0 6 7 10 16 10 8 0 12 -4 9 -10z m2309 -144
c44 -78 46 -92 6 -40 -16 22 -33 44 -38 49 -8 10 -14 55 -7 55 2 0 19 -29 39
-64z m656 24 c0 -5 -2 -10 -4 -10 -3 0 -8 5 -11 10 -3 6 -1 10 4 10 6 0 11 -4
11 -10z m-1039 -81 c-5 -13 -10 -19 -10 -12 -1 15 10 45 15 40 3 -2 0 -15 -5
-28z m59 -29 c-6 -11 -8 -29 -5 -40 3 -10 -3 -35 -15 -57 -11 -21 -20 -45 -20
-53 0 -8 -9 -29 -19 -46 -10 -17 -24 -54 -30 -83 -15 -69 -14 -76 4 -61 8 7
15 22 15 34 0 12 7 31 15 42 14 19 14 19 15 -3 0 -12 -4 -25 -10 -28 -5 -3
-10 -17 -10 -30 0 -28 -13 -39 -39 -30 -15 5 -18 13 -14 53 4 44 3 46 -11 28
-25 -31 -27 -14 -5 32 12 23 27 42 35 42 17 0 19 20 2 20 -8 1 -6 6 4 14 10 7
15 15 13 18 -3 3 1 11 10 18 8 7 15 17 15 23 0 6 7 19 17 29 22 25 8 36 -17
13 -18 -17 -20 -17 -14 -2 3 9 10 17 16 17 5 0 6 5 3 10 -3 6 1 13 9 16 9 3
16 14 16 23 0 20 23 46 28 32 2 -5 -2 -19 -8 -31z m-90 -114 c0 -3 -4 -8 -10
-11 -5 -3 -10 -1 -10 4 0 6 5 11 10 11 6 0 10 -2 10 -4z m1065 -30 c17 -9 36
-16 42 -16 7 0 27 -9 45 -20 18 -11 41 -20 50 -20 9 0 29 -11 45 -24 15 -12
34 -21 41 -19 6 3 12 -1 12 -7 0 -8 9 -10 24 -6 23 6 24 4 31 -78 12 -149 4
-226 -25 -226 -5 0 -10 -14 -10 -31 0 -19 -4 -28 -11 -24 -6 4 -13 -2 -16 -14
-3 -11 -10 -18 -15 -14 -6 3 -9 0 -6 -8 7 -20 78 -58 96 -51 10 3 13 1 8 -6
-5 -8 2 -12 21 -12 20 0 40 -11 63 -35 35 -36 31 -47 -8 -19 -23 16 -24 15
-26 -26 -1 -27 -2 -27 -73 -12 -43 9 -127 58 -158 92 -10 11 -15 28 -12 40 3
11 1 20 -3 20 -5 0 -11 -8 -13 -17 -3 -12 -5 -10 -6 7 0 14 8 50 20 80 11 30
23 62 26 72 7 24 -25 84 -61 115 -31 26 -40 52 -21 65 14 10 -18 33 -97 70
-38 17 -68 35 -68 39 0 11 -2 11 40 -2 61 -19 90 -20 90 -4 0 8 -5 15 -11 15
-6 0 -9 6 -6 13 3 9 -15 24 -54 43 -32 16 -58 32 -59 36 0 12 73 1 105 -16z
m161 -17 c12 -20 -11 -26 -28 -7 -17 17 -17 18 1 18 11 0 23 -5 27 -11z m128
-44 c3 -8 1 -15 -3 -15 -5 0 -11 7 -15 15 -3 8 -1 15 3 15 5 0 11 -7 15 -15z
m26 -75 c0 -5 -2 -10 -4 -10 -3 0 -8 5 -11 10 -3 6 -1 10 4 10 6 0 11 -4 11
-10z m-1470 -4 c0 -3 -4 -8 -10 -11 -5 -3 -10 -1 -10 4 0 6 5 11 10 11 6 0 10
-2 10 -4z m-19 -99 c-10 -9 -11 -8 -5 6 3 10 9 15 12 12 3 -3 0 -11 -7 -18z
m-11 -117 c0 -5 -5 -10 -11 -10 -5 0 -7 5 -4 10 3 6 8 10 11 10 2 0 4 -4 4
-10z m64 -35 c-20 -25 -38 -45 -41 -45 -2 0 10 20 27 45 17 25 36 45 41 45 6
0 -6 -20 -27 -45z m-2164 -59 c0 -11 -19 -15 -25 -6 -3 5 1 10 9 10 9 0 16 -2
16 -4z m2040 0 c0 -2 -7 -7 -16 -10 -8 -3 -12 -2 -9 4 6 10 25 14 25 6z m70 0
c0 -2 -13 -20 -30 -41 -35 -44 -39 -41 -9 9 17 30 39 48 39 32z m1650 -144
c24 -21 40 -44 39 -56 0 -20 -1 -20 -11 2 -14 28 -74 66 -90 56 -8 -5 -9 -2
-5 9 5 13 1 17 -14 17 -13 0 -18 -4 -13 -12 4 -7 3 -8 -5 -4 -6 4 -9 11 -6 16
3 4 -1 11 -7 14 -7 3 6 3 30 0 29 -4 55 -17 82 -42z m-1145 -225 c-27 -86 -93
-202 -80 -142 4 17 18 54 32 83 24 50 25 64 8 103 -4 11 4 29 24 51 17 20 28
38 25 41 -3 3 -2 12 2 19 6 8 10 -2 12 -31 2 -27 -6 -74 -23 -124z m-3477 123
c-14 -4 -32 -11 -39 -15 -7 -5 -10 -4 -5 3 3 6 -3 12 -16 14 -13 2 2 4 32 5
41 0 48 -2 28 -7z m3565 -32 c-5 -27 -23 -40 -23 -17 0 13 20 52 25 47 2 -1 1
-15 -2 -30z m-3553 2 c0 -5 -2 -10 -4 -10 -3 0 -8 5 -11 10 -3 6 -1 10 4 10 6
0 11 -4 11 -10z m3604 -5 c4 -11 13 -14 29 -10 16 5 30 -1 48 -19 14 -13 37
-28 51 -31 19 -5 25 -13 24 -31 -1 -28 -9 -30 -30 -8 -14 13 -16 14 -16 0 0
-23 -18 -29 -36 -12 -8 9 -26 16 -39 16 -22 0 -23 3 -19 38 l5 37 -18 -27
c-20 -32 -32 -36 -31 -10 0 9 -3 29 -7 45 -6 23 -4 27 13 27 11 0 22 -7 26
-15z m-3654 -30 c0 -13 -58 -31 -80 -24 l-25 7 25 1 c14 1 32 6 40 11 16 10
40 13 40 5z m-121 -14 c22 -14 -1 -57 -34 -65 -32 -8 -37 -5 -39 26 -2 34 44
57 73 39z m-127 -41 c-20 -12 -32 -27 -30 -37 3 -15 -6 -18 -59 -18 -36 0 -67
-5 -75 -13 -10 -10 -7 -12 17 -8 17 2 23 1 15 -1 -8 -3 -25 -12 -38 -21 -17
-11 -26 -12 -35 -3 -8 8 -6 11 8 11 16 0 17 2 5 10 -12 7 -11 10 5 16 10 4 27
16 37 26 10 10 30 18 46 17 26 0 26 -1 5 -9 -26 -11 -30 -20 -9 -20 19 0 48
29 41 41 -4 5 1 6 9 3 8 -3 25 1 38 10 12 9 29 16 38 16 8 0 0 -9 -18 -20z
m808 -11 c0 -14 -16 -11 -29 5 -10 12 -8 13 8 9 12 -3 21 -9 21 -14z m-940
-98 c0 -5 -13 -14 -29 -21 -31 -12 -91 -66 -91 -81 0 -5 -7 -9 -15 -9 -20 0
-19 6 10 44 19 25 22 35 13 44 -9 9 -9 12 -1 12 6 0 14 -6 17 -12 5 -10 7 -10
12 0 3 6 16 12 29 12 13 0 27 5 30 10 8 12 25 13 25 1z m-135 -40 c-3 -6 -11
-8 -17 -5 -6 4 -5 9 3 15 16 10 23 4 14 -10z m5230 -49 c-3 -3 -11 0 -18 7 -9
10 -8 11 6 5 10 -3 15 -9 12 -12z m126 -219 c13 -17 13 -17 -6 -3 -11 8 -22
16 -24 17 -2 2 0 3 6 3 6 0 17 -8 24 -17z"/>
<path d="M3706 5185 c6 -16 44 -41 44 -30 0 4 -5 15 -10 26 -13 23 -42 26 -34
4z"/>
<path d="M3878 5153 c7 -3 16 -2 19 1 4 3 -2 6 -13 5 -11 0 -14 -3 -6 -6z"/>
<path d="M3830 5110 c17 -9 86 -7 97 4 3 3 -20 6 -53 6 -40 -1 -54 -4 -44 -10z"/>
<path d="M3855 5070 c-3 -5 3 -10 14 -10 10 0 21 -5 23 -10 2 -6 14 -12 26
-15 13 -2 33 -7 44 -11 21 -6 21 -6 2 14 -32 34 -96 53 -109 32z"/>
<path d="M4020 4986 c0 -2 8 -10 18 -17 15 -13 16 -12 3 4 -13 16 -21 21 -21
13z"/>
<path d="M4290 4602 c0 -5 14 -15 31 -21 23 -8 29 -8 26 2 -2 6 -10 11 -17 9
-7 -1 -18 3 -26 9 -9 7 -14 8 -14 1z"/>
<path d="M4540 4438 c0 -8 18 -32 40 -53 46 -45 51 -37 12 19 -29 42 -52 57
-52 34z"/>
<path d="M4440 4315 c7 -8 17 -15 22 -15 6 0 5 7 -2 15 -7 8 -17 15 -22 15 -6
0 -5 -7 2 -15z"/>
<path d="M4480 4298 c0 -3 9 -15 20 -28 11 -13 20 -19 20 -13 0 5 -9 18 -20
28 -11 10 -20 16 -20 13z"/>
<path d="M4585 4240 c10 -11 20 -20 22 -20 2 0 -1 9 -7 20 -6 11 -16 20 -22
20 -6 0 -3 -9 7 -20z"/>
<path d="M4646 4183 c9 -38 14 -42 14 -10 0 14 -5 29 -10 32 -7 4 -8 -3 -4
-22z"/>
<path d="M4610 3823 c0 -10 52 -63 62 -63 4 0 8 6 8 13 -1 12 -70 62 -70 50z"/>
<path d="M4940 3390 c0 -12 8 -12 35 0 18 8 17 9 -7 9 -16 1 -28 -3 -28 -9z"/>
<path d="M5128 3223 c7 -3 16 -2 19 1 4 3 -2 6 -13 5 -11 0 -14 -3 -6 -6z"/>
<path d="M4690 3050 c0 -5 5 -10 10 -10 6 0 10 5 10 10 0 6 -4 10 -10 10 -5 0
-10 -4 -10 -10z"/>
<path d="M4955 2720 c3 -5 8 -10 11 -10 2 0 4 5 4 10 0 6 -5 10 -11 10 -5 0
-7 -4 -4 -10z"/>
<path d="M4980 2684 c0 -19 12 -24 31 -13 26 14 24 24 -6 24 -14 0 -25 -5 -25
-11z"/>
<path d="M4922 2653 c4 -24 24 -27 24 -3 0 11 -6 20 -14 20 -7 0 -12 -8 -10
-17z"/>
<path d="M5050 2660 c0 -5 5 -10 11 -10 5 0 7 5 4 10 -3 6 -8 10 -11 10 -2 0
-4 -4 -4 -10z"/>
<path d="M4520 2645 c-1 -5 -1 -18 0 -29 1 -11 -3 -15 -9 -12 -7 4 -8 1 -5 -8
3 -9 10 -16 15 -16 16 0 22 30 11 53 -6 12 -11 18 -12 12z"/>
<path d="M4490 2526 c0 -8 4 -17 9 -20 5 -4 7 3 4 14 -6 23 -13 26 -13 6z"/>
<path d="M4715 2490 c-3 -6 1 -7 9 -4 18 7 21 14 7 14 -6 0 -13 -4 -16 -10z"/>
<path d="M4630 2425 c-7 -14 -10 -28 -7 -32 9 -9 58 37 51 48 -10 17 -31 9
-44 -16z"/>
<path d="M4470 2407 c0 -23 11 -47 22 -47 14 0 5 53 -9 58 -7 2 -13 -3 -13
-11z"/>
<path d="M4432 2359 c1 -12 8 -24 15 -26 7 -3 9 3 6 17 -8 29 -25 37 -21 9z"/>
<path d="M4682 2368 c-14 -14 -16 -48 -3 -48 9 0 25 49 18 56 -2 2 -9 -2 -15
-8z"/>
<path d="M1810 3422 c0 -15 -5 -33 -11 -39 -8 -8 -8 -16 0 -30 11 -18 12 -17
16 26 1 13 8 27 15 31 14 9 7 40 -10 40 -5 0 -10 -13 -10 -28z"/>
<path d="M1758 3345 c-3 -49 6 -48 15 2 4 18 2 35 -2 38 -5 3 -11 -15 -13 -40z"/>
<path d="M1920 3104 c0 -8 5 -12 10 -9 6 4 8 11 5 16 -9 14 -15 11 -15 -7z"/>
<path d="M4518 2905 c-3 -13 -2 -22 2 -20 11 7 20 45 10 45 -4 0 -10 -11 -12
-25z"/>
<path d="M1722 2760 c0 -19 2 -27 5 -17 2 9 2 25 0 35 -3 9 -5 1 -5 -18z"/>
<path d="M4732 2074 c8 -9 23 -14 33 -12 12 2 7 7 -16 15 -30 12 -32 11 -17
-3z"/>
<path d="M4809 2036 c29 -31 35 -33 22 -7 -6 10 -18 22 -28 25 -13 5 -11 1 6
-18z"/>
<path d="M4930 1972 c0 -5 7 -13 16 -16 10 -4 14 -1 12 6 -5 15 -28 23 -28 10z"/>
<path d="M4975 1960 c-3 -5 -1 -10 4 -10 6 0 11 5 11 10 0 6 -2 10 -4 10 -3 0
-8 -4 -11 -10z"/>
<path d="M4897 1557 c-9 -25 31 -58 75 -63 31 -3 39 -2 28 6 -8 5 -23 10 -33
10 -10 0 -16 3 -14 8 2 4 -8 17 -23 29 -20 17 -29 19 -33 10z"/>
<path d="M4932 1558 c3 -7 15 -14 29 -16 23 -2 23 -2 5 13 -24 18 -39 20 -34
3z"/>
<path d="M5053 1483 c9 -2 23 -2 30 0 6 3 -1 5 -18 5 -16 0 -22 -2 -12 -5z"/>
<path d="M420 1300 c-13 -8 -12 -10 3 -10 9 0 17 5 17 10 0 12 -1 12 -20 0z"/>
<path d="M5450 3656 c0 -9 6 -13 14 -10 8 3 17 1 21 -5 9 -16 25 -13 25 4 0 8
-6 15 -14 15 -8 0 -21 3 -30 6 -10 4 -16 1 -16 -10z"/>
<path d="M5470 3550 c0 -5 7 -10 16 -10 8 0 12 5 9 10 -3 6 -10 10 -16 10 -5
0 -9 -4 -9 -10z"/>
<path d="M5458 3263 c7 -3 16 -2 19 1 4 3 -2 6 -13 5 -11 0 -14 -3 -6 -6z"/>
<path d="M5320 3185 c0 -2 10 -10 23 -16 20 -11 21 -11 8 4 -13 16 -31 23 -31
12z"/>
<path d="M5426 3132 c-4 -7 -2 -12 4 -12 6 0 8 -4 5 -10 -3 -5 3 -10 14 -10
12 0 21 5 21 10 0 6 -6 10 -14 10 -8 0 -16 5 -18 12 -3 9 -6 9 -12 0z"/>
<path d="M5340 3070 c0 -5 7 -10 15 -10 8 0 15 5 15 10 0 6 -7 10 -15 10 -8 0
-15 -4 -15 -10z"/>
<path d="M5237 3010 c3 -11 9 -20 14 -20 5 0 9 9 9 20 0 11 -6 20 -14 20 -9 0
-12 -7 -9 -20z"/>
<path d="M5333 2793 c9 -9 20 -13 24 -9 4 4 1 11 -7 16 -25 16 -35 11 -17 -7z"/>
<path d="M5295 2760 c-3 -5 -1 -10 4 -10 6 0 11 5 11 10 0 6 -2 10 -4 10 -3 0
-8 -4 -11 -10z"/>
<path d="M5210 1191 c0 -12 39 -35 46 -28 3 2 -7 12 -21 21 -14 9 -25 12 -25
7z"/>
<path d="M5377 1121 c3 -11 11 -22 18 -25 11 -4 12 0 6 16 -10 28 -31 36 -24
9z"/>
<path d="M5450 1111 c0 -9 44 -41 56 -41 4 0 -5 11 -20 25 -29 27 -36 30 -36
16z"/>
<path d="M5340 1102 c0 -11 22 -32 32 -32 5 0 4 9 -2 20 -11 20 -30 28 -30 12z"/>
<path d="M5440 1073 c0 -11 11 -24 43 -52 l27 -24 0 25 c0 23 -6 28 -62 56 -5
2 -8 0 -8 -5z"/>
</g>
</svg>
